{
    "asset" : {
        "generator" : "Khronos glTF Blender I/O v1.8.19",
        "version" : "2.0"
    },
    "scene" : 0,
    "scenes" : [
        {
            "name" : "Scene",
            "nodes" : [
                0,
                1
            ]
        }
    ],
    "nodes" : [
        {
            "name" : "Empty",
            "rotation" : [
                0.5,
                0.5,
                -0.5,
                0.4999999701976776
            ],
            "scale" : [
                3.523071765899658,
                1,
                3.523071765899658
            ],
            "translation" : [
                0,
                -0.03417680412530899,
                -1.6316895484924316
            ]
        },
        {
            "mesh" : 0,
            "name" : "Cylinder",
            "translation" : [
                0,
                1.4328458309173584,
                0
            ]
        }
    ],
    "meshes" : [
        {
            "name" : "Cylinder.003",
            "primitives" : [
                {
                    "attributes" : {
                        "POSITION" : 0,
                        "NORMAL" : 1
                    },
                    "indices" : 2
                }
            ]
        }
    ],
    "accessors" : [
        {
            "bufferView" : 0,
            "componentType" : 5126,
            "count" : 1416,
            "max" : [
                1.0307077169418335,
                3.193350076675415,
                1.0396013259887695
            ],
            "min" : [
                -1.0307077169418335,
                -1,
                -1.095200538635254
            ],
            "type" : "VEC3"
        },
        {
            "bufferView" : 1,
            "componentType" : 5126,
            "count" : 1416,
            "type" : "VEC3"
        },
        {
            "bufferView" : 2,
            "componentType" : 5123,
            "count" : 2136,
            "type" : "SCALAR"
        }
    ],
    "bufferViews" : [
        {
            "buffer" : 0,
            "byteLength" : 16992,
            "byteOffset" : 0
        },
        {
            "buffer" : 0,
            "byteLength" : 16992,
            "byteOffset" : 16992
        },
        {
            "buffer" : 0,
            "byteLength" : 4272,
            "byteOffset" : 33984
        }
    ],
    "buffers" : [
        {
            "byteLength" : 38256,
            "uri" : "data:application/octet-stream;base64,"
        }
    ]
}
